<svg width="94" height="48" viewBox="0 0 94 48" fill="none" xmlns="http://www.w3.org/2000/svg">
<path d="M0.0426521 35.6015C-1.21224 32.57 25.611 2.25525 29.3756 1.70407C30.9443 1.42848 36.4344 3.63319 36.7481 5.42452C36.905 6.38908 34.7089 10.7985 30.0031 24.7158C30.0031 24.8535 43.65 8.86938 48.5127 4.45996C53.8459 -0.362849 54.944 -0.362849 57.14 0.326124C59.3361 1.0151 62.0027 3.08201 61.689 3.77099C61.0616 5.14893 46.6303 31.3299 46.6303 47.8652C46.6303 48.4164 42.7088 47.3141 39.7285 43.8692C39.101 43.1802 42.0814 31.3299 46.0029 20.8575C49.7676 11.2119 54.6303 2.53084 54.6303 2.66863C46.0029 8.86938 29.5325 32.8456 29.0619 33.8102C28.5913 34.7748 23.4149 32.57 22.3169 30.5031C20.4346 27.0583 30.0031 4.04658 30.0031 4.04658C24.3561 9.55836 14.1601 19.204 6.47395 39.8732C6.47395 40.0109 1.29754 38.4952 0.0426521 35.6015Z" fill="#F6E200"/>
<path d="M69.4314 15.9277C68.4812 15.5144 64.6806 11.7947 65.314 10.5548C70.5399 1.87548 83.6839 0.0845094 88.2763 2.15102C92.5521 4.07976 97.1446 8.48831 87.8013 17.1676C84.7924 20.0608 75.2907 29.2912 63.7304 36.1795C62.7802 36.7306 77.0327 35.3529 87.4845 37.4194C89.0681 37.695 88.5931 39.0726 87.8013 39.0726C64.0471 37.4194 56.1291 41.2769 55.0205 41.1392C53.912 41.0014 50.9031 36.5928 52.6451 35.7662C63.0969 30.6688 68.7979 25.5715 72.4402 22.4028C82.5753 13.7235 89.8599 6.14627 87.1678 4.35529C85.4258 3.11539 81.1501 4.63083 76.8743 7.38617C70.6983 11.7947 69.4314 15.9277 69.4314 15.9277Z" fill="#F6E200"/>
</svg>
